<svg xmlns="http://www.w3.org/2000/svg" viewBox="0 0 1440 320">
  <path class="background" fill="#BABD8D" fill-opacity="1" d="M0,32L30,48C60,64,120,96,180,101.3C240,107,300,85,360,64C420,43,480,21,540,37.3C600,53,660,107,720,112C780,117,840,75,900,64C960,53,1020,75,1080,96C1140,117,1200,139,1260,144C1320,149,1380,139,1410,133.3L1440,128L1440,320L1410,320C1380,320,1320,320,1260,320C1200,320,1140,320,1080,320C1020,320,960,320,900,320C840,320,780,320,720,320C660,320,600,320,540,320C480,320,420,320,360,320C300,320,240,320,180,320C120,320,60,320,30,320L0,320Z"></path>
</svg>