<svg xmlns="http://www.w3.org/2000/svg" viewBox="0 0 1440 320"><path class="background" d="M0 32L30 48C60 64 120 96 180 101.3 240 107 300 85 360 64 420 43 480 21 540 37.3 600 53 660 107 720 112 780 117 840 75 900 64 960 53 1020 75 1080 96 1140 117 1200 139 1260 144 1320 149 1380 139 1410 133.3L1440 128 1440 320 1410 320C1380 320 1320 320 1260 320 1200 320 1140 320 1080 320 1020 320 960 320 900 320 840 320 780 320 720 320 660 320 600 320 540 320 480 320 420 320 360 320 300 320 240 320 180 320 120 320 60 320 30 320L0 320Z" fill="#FFDAC6"/></svg>